<?xml version="1.0" encoding="utf-8"?>
<!-- Generator: Adobe Illustrator 21.0.2, SVG Export Plug-In . SVG Version: 6.00 Build 0)  -->
<svg version="1.1" id="Layer_1" xmlns="http://www.w3.org/2000/svg" xmlns:xlink="http://www.w3.org/1999/xlink" x="0px" y="0px"
	 viewBox="0 0 263 92" style="enable-background:new 0 0 263 92;" xml:space="preserve">
<style type="text/css">
	.st0{fill:#9E9E9E;}
	.st1{fill:none;}
</style>
<g id="Layer_2">
	<g id="Layer_1-2">
		<g id="Layer_2-2">
			<g id="Logomark">
				<path class="st0" d="M87.8,58.2c2.9,0,5.7-1.2,7.7-3.4l2.3,2c-2.5,3-6.1,4.7-10,4.6c-6.7,0-12.2-5.1-12.2-12.7
					c0-7.1,4.9-12.7,11.7-12.7c7.2,0,11.3,5.7,11.3,12.9c0,0.3,0,0.7,0,1.3H79.3C79.5,54.6,83.2,58.2,87.8,58.2z M94.9,47.2
					C94.5,42.7,92,39,87.1,39c-4.2,0-7.4,3.5-7.9,8.2L94.9,47.2z"/>
				<path class="st0" d="M102.4,48.7L102.4,48.7c0-7.1,5.6-12.8,12.6-12.8c3.7,0,7.2,1.6,9.6,4.3l-2.4,2.5c-1.9-2-4.1-3.7-7.4-3.7
					c-4.9,0-8.7,4.2-8.7,9.4v0.1c0,5.3,3.8,9.5,8.9,9.5c2.9-0.1,5.6-1.4,7.4-3.6l2.3,2.2c-4.4,5.4-12.3,6.3-17.7,1.9
					C104.1,56.1,102.4,52.5,102.4,48.7z"/>
				<path class="st0" d="M127.7,48.7L127.7,48.7c0.2-7.1,6-12.7,13-12.5c6.7,0.2,12.2,5.6,12.4,12.3v0.1c0,7-5.6,12.7-12.5,12.7
					c0,0,0,0,0,0h-0.2c-6.9,0.1-12.5-5.4-12.6-12.3C127.7,48.9,127.7,48.8,127.7,48.7z M149.3,48.7L149.3,48.7
					c0.2-5.2-3.8-9.4-8.9-9.6c0,0-0.1,0-0.1,0c-5.3,0-8.9,4.3-8.9,9.4v0.1c0,5.2,3.9,9.5,9,9.5S149.3,53.8,149.3,48.7L149.3,48.7z"
					/>
				<path class="st0" d="M161.1,56.1v4.7h-3.6V26.4h3.6v14.9c2-2.9,4.9-5.4,9.3-5.4c5.8,0,11.6,4.6,11.6,12.6v0.1
					c0,8-5.7,12.7-11.6,12.7C166.6,61.2,163.1,59.3,161.1,56.1z M178.3,48.6L178.3,48.6c0-5.8-3.9-9.5-8.6-9.5
					c-5,0.1-8.9,4.3-8.8,9.3c0,0,0,0,0,0v0.1c-0.2,5,3.7,9.2,8.7,9.4c0,0,0.1,0,0.1,0C174.4,58,178.3,54.5,178.3,48.6z"/>
				<path class="st0" d="M198.4,58.2c2.9,0,5.7-1.2,7.7-3.4l2.3,2c-2.5,3-6.1,4.7-10,4.6c-6.7,0-12.1-5.1-12.1-12.7
					c0-7.1,4.9-12.7,11.7-12.7c7.2,0,11.4,5.7,11.4,12.9c0,0.3,0,0.7,0,1.3h-19.4C190,54.6,193.8,58.2,198.4,58.2z M205.5,47.2
					c-0.4-4.4-3-8.2-7.8-8.2c-4.2,0-7.4,3.5-7.9,8.2H205.5z"/>
				<path class="st0" d="M225.2,58.2c2.9,0,5.7-1.2,7.7-3.4l2.3,2c-2.5,3-6.1,4.7-10,4.6c-6.7,0-12.1-5.1-12.1-12.7
					c0-7.1,4.9-12.7,11.7-12.7c7.2,0,11.4,5.7,11.4,12.9c0,0.3,0,0.7,0,1.3h-19.4C217.2,55.2,220.9,58.2,225.2,58.2z M232.3,47.2
					c-0.4-4.4-3-8.2-7.8-8.2c-4.2,0-7.4,3.5-7.9,8.2H232.3z"/>
				<path class="st0" d="M36.2,67.6c-1.4-0.1-2.7-0.5-3.9-1.3l-1,1.5l1-1.5c-1.2-0.8-2.1-1.9-2.7-3.1c-0.3-0.5-0.4,0-0.4,0
					c-1.1,4.2,0.8,6.1,0.9,6.2l0,0l0,0l0,0c0.2,0.1,2.6,1.2,6.1-1.4C36.4,67.9,36.8,67.7,36.2,67.6z M45,62.8
					c-3-0.1-5.9-1.1-8.3-2.8c-2.5-1.6-4.5-4-5.7-6.8c-0.1-0.3-0.2-0.1-0.2-0.1c-1.2,1.8-1.6,2.8-0.9,5.6s3.9,5,4.1,5.2l0,0
					c0.2,0.2,3.6,2.3,6.3,2s3.7-1.2,4.9-2.9C45.2,63,45.3,62.8,45,62.8z M64.7,56.7c-0.6-4.5-2.4-8.8-5.3-12.3c0,0-0.1,0,0-0.3
					s0.3-1,0.3-1s0-0.1,0.1-0.1c1.2-0.3,2.2-1.1,2.8-2.1c1.2-1.7,1.9-5.3-2.1-8c0,0,0,0,0-0.2s-0.7-3.1-2.4-4.3l0,0
					c-1.8-1.2-4.7-0.7-4.9-0.7s-0.2,0-0.2,0c-4-2.7-7-0.7-8.2,1c-0.7,1-1,2.2-0.9,3.4c0,0.2-0.1,0.2-0.1,0.2s-0.6,0.5-0.8,0.7
					s-0.3,0.1-0.3,0.1c-4.3-1.3-9-1.5-13.4-0.4c-5.9,1.5-8.3,3.7-9.6,5.7s-2,5.7,2,8.5s9.9,2.5,9.9,2.5c0.2,0,0.2,0.1,0.2,0.1
					c1.4,5,6.1,7.9,6.4,8.1s4.7,3.5,9.9,3c0.1,0,0.2,0.1,0.2,0.1c0,0,1.9,5.5,6,8.2s7.4,0.7,8.7-1.2S65.4,62.8,64.7,56.7L64.7,56.7z
					 M59.7,35.6c1.2,0.8,1.5,2.5,0.7,3.7c-0.8,1.2-2.5,1.5-3.7,0.7c-1.2-0.8-1.5-2.5-0.7-3.7c0,0,0,0,0,0
					C56.8,35.1,58.5,34.8,59.7,35.6C59.7,35.6,59.7,35.6,59.7,35.6L59.7,35.6z M50.9,29.6c1.2,0.8,1.5,2.5,0.7,3.7
					c-0.8,1.2-2.5,1.5-3.7,0.7c-1.2-0.8-1.5-2.5-0.7-3.7c0,0,0,0,0,0C48,29.1,49.6,28.8,50.9,29.6C50.9,29.6,50.9,29.6,50.9,29.6
					L50.9,29.6z M22.8,41.8c0,0-0.8-4.8,9.8-6.3c11.7-1.7,12.2,4,12.2,4s0.8,4.3-9.2,6.2S22.4,42.3,22.8,41.8z M41.9,52.4L41.9,52.4
					L41.9,52.4L41.9,52.4c-1.6-0.9-2.9-2.2-4-3.7c1.9-0.4,3.7-1,5.4-1.9l1.6,1.1l0,0l0,0l0,0l1.6,1.1c-0.2,1.9-0.1,3.8,0.2,5.7
					C45,54.3,43.3,53.5,41.9,52.4z M58.6,66.2c-0.4,0.5-6.4-0.4-8.2-10.4S52.8,45,52.8,45s5.5-1.6,8.1,9.9
					C63.3,65.2,58.6,66.2,58.6,66.2z"/>
			</g>
		</g>
		<rect class="st1" width="263" height="92"/>
	</g>
</g>
</svg>
