<?xml version="1.0" encoding="utf-8"?>
<!-- Generator: Adobe Illustrator 21.0.2, SVG Export Plug-In . SVG Version: 6.00 Build 0)  -->
<svg version="1.1" id="Layer_1" xmlns="http://www.w3.org/2000/svg" xmlns:xlink="http://www.w3.org/1999/xlink" x="0px" y="0px"
	 viewBox="0 0 159 92" style="enable-background:new 0 0 159 92;" xml:space="preserve">
<style type="text/css">
	.st0{fill:#9E9E9E;}
	.st1{fill:none;}
</style>
<g id="Layer_2">
	<g id="Layer_1-2">
		<g id="Layer_2-2">
			<g id="Layer_1-2-2">
				<path class="st0" d="M101.3,51.9c1.5,0.5,2.5,1.9,2.5,3.4c0,1.9-1.5,3.1-4,3.1c-2.6,0-3.8-2.3-4.2-3l-0.4-0.9h-9.4
					c-1.4,2.4-3.9,3.9-6.7,4c-5.3,0-7.9-4.2-8.2-8.2h21.5v-0.9c0-1.6-0.2-3.2-0.5-4.8c0.8,2.4,2.7,4.3,5,5.3
					C98,50.4,99.6,51.1,101.3,51.9 M78.9,38.8c4.4,0,6.6,3.1,7.2,6.2H71.4C72.1,41.5,75.2,38.9,78.9,38.8 M122,39v-5.6h-4.6v-6.6
					h-5.6v6.6h-11.3c-5.2,0-9,3.5-9,8.4c0,0.6,0.1,1.1,0.2,1.7c-1.8-6.2-6.5-10.1-12.8-10.1c-7.7,0-13.6,6-14.1,14.2v-1.8
					c0-6.8-5.5-12.4-12.4-12.4C45.6,33.5,40,39,40,45.9c0,0,0,0,0,0v17.9h5.7V45.9c-0.1-3.7,2.7-6.8,6.5-7c3.7-0.1,6.8,2.7,7,6.5
					c0,0.2,0,0.3,0,0.5v17.9h5.7v-14c0.5,8.2,6.5,14.3,14.3,14.3c4.5-0.1,8.7-2.4,11.3-6c1.7,3.7,5.4,6.1,9.5,6c5,0,10-3.2,10-9.3
					c0-3.7-2.1-6.7-5.9-8.4l-1.3-0.6h-0.1l-1.3-0.6c-2.5-1.1-3.7-2-3.7-3.6c0.1-1.5,1.4-2.6,2.9-2.5h11.3v16c0,5.1,4.1,9.2,9.2,9.2
					v-5.7c-2,0-3.5-1.6-3.5-3.5V39H122"/>
			</g>
		</g>
		<rect class="st1" width="159" height="92"/>
	</g>
</g>
</svg>
