<svg xmlns="http://www.w3.org/2000/svg" viewBox="0 0 263 92"><defs><style>.cls-1{fill:#a09f9f;}.cls-2{fill:none;}</style></defs><title>dropcamAsset 3</title><g id="Layer_2" data-name="Layer 2"><g id="Layer_1-2" data-name="Layer 1"><g id="Layer_2-2" data-name="Layer 2"><g id="Layer_1-2-2" data-name="Layer 1-2"><path class="cls-1" d="M194.55,49A10.63,10.63,0,1,0,190,58.26h0A2.22,2.22,0,0,0,192,59.94h2.53V49Zm-10.63,6.6A6.07,6.07,0,1,1,190,49.56a6.07,6.07,0,0,1-6.07,6.07"/><path class="cls-1" d="M117.54,38.95A10.61,10.61,0,1,0,128.11,49.6v0A10.62,10.62,0,0,0,117.5,38.95m0,16.72a6.1,6.1,0,1,1,6.1-6.1h0a6.11,6.11,0,0,1-6.1,6.1"/><path class="cls-1" d="M219.14,39a7.74,7.74,0,0,0-6.06,2.74A6.83,6.83,0,0,0,207.39,39a5.55,5.55,0,0,0-4.66,2.55l-.08-2.19h-4.46V59.94h4.57V47.8c0-2.63,1.63-4.53,3.89-4.53s3.51,1.54,3.51,4.22V59.94h4.52V47.7c0-3.06,1.93-4.43,3.85-4.43,3.09,0,3.55,2.69,3.55,4.29V59.94h2.28a2.28,2.28,0,0,0,2.28-2.28h0V47c0-4.86-2.93-8-7.46-8"/><path class="cls-1" d="M104.37,38.95a5.66,5.66,0,0,0-4.57,2.57l-.08-2.19H95.22v20.6h2.27a2.3,2.3,0,0,0,2.26-2.08V50.47h0V48.73c0-2.63.66-5,3.55-5.4a5.69,5.69,0,0,1,2.34.18l1.52-4.15a7,7,0,0,0-2.82-.41"/><path class="cls-1" d="M168.92,54.9l-.38.16a5,5,0,0,1-2.58.57,6.07,6.07,0,1,1,3.79-10.79l3.09-3.19A10,10,0,0,0,166,38.89a10.61,10.61,0,0,0,0,21.23h0a10.48,10.48,0,0,0,7.13-2.74l-1.75-1.95a2.24,2.24,0,0,0-2.42-.56"/><path class="cls-1" d="M87.06,33.93v6.94A10.61,10.61,0,1,0,81,60.18a9.59,9.59,0,0,0,6.08-2.32l.06,2.09h4.46V31.82H89.34a2.3,2.3,0,0,0-2.28,2.1M81,55.63a6.07,6.07,0,1,1,6.07-6.07A6.07,6.07,0,0,1,81,55.63"/><path class="cls-1" d="M135.68,65.19V58.25a10.61,10.61,0,1,0,6.07-19.36,9.57,9.57,0,0,0-6.08,2.38l-.06-2h-4.46v28h2.27a2.29,2.29,0,0,0,2.28-2.1m6.07-21.68a6.07,6.07,0,1,1-6.07,6.07h0a6.08,6.08,0,0,1,6.07-6.07"/><path class="cls-1" d="M58.51,34.32a15.53,15.53,0,0,0-22,22l4.84,4.85a5.67,5.67,0,0,1,1.73-4.29l3-3-3.56-3.56a7,7,0,1,1,9.88,0l-4.92,4.94h0l-3,2.86A4.16,4.16,0,0,0,44.38,64l3.17,3.17,4.95-4.95h0l6-6a15.55,15.55,0,0,0,0-22"/></g></g><rect class="cls-2" width="263" height="92"/></g></g></svg>