<?xml version="1.0" encoding="utf-8"?>
<!-- Generator: Adobe Illustrator 21.0.2, SVG Export Plug-In . SVG Version: 6.00 Build 0)  -->
<svg version="1.1" xmlns="http://www.w3.org/2000/svg" xmlns:xlink="http://www.w3.org/1999/xlink" x="0px" y="0px"
	 viewBox="0 0 184 184" style="enable-background:new 0 0 184 184;" xml:space="preserve">
<style type="text/css">
	.st0{fill:none;}
</style>
<g id="icon">
	<path d="M124.2,73h-6.8V51.5c0-2.2-1.8-4-4-4s-4,1.8-4,4V73H78V51c0-2.2-1.8-4-4-4s-4,1.8-4,4v22h-7.8c-3,0-5.5,2.5-5.5,5.5
		s2.5,5.5,5.5,5.5h1.5v19c0,13.1,9.4,24.3,22.3,26.6V146h2v-16.1c0.9,0.1,1.8,0.1,2.7,0.1h5c1.1,0,2.2-0.1,3.2-0.2V146h2v-16.5
		c12.7-2.5,21.8-13.6,21.8-26.5V84h1.5c3,0,5.5-2.5,5.5-5.5S127.3,73,124.2,73L124.2,73z M110.5,51.5c0-1.7,1.3-3,3-3s3,1.3,3,3V73
		h-6V51.5z M71,51c0-1.7,1.3-3,3-3s3,1.3,3,3v22h-6V51z M119.8,103c0,13.3-10.7,24-24,24h-5c-13.3,0-24-10.7-24-24V84h53V103z
		 M124.3,81h-62c-1.4,0-2.5-1.1-2.5-2.5s1.1-2.5,2.5-2.5h62c1.4,0,2.5,1.1,2.5,2.5S125.6,81,124.3,81z M91.3,121.1
		c0.1-0.3,0.3-0.4,0.6-0.4c0,0,0,0,0,0c10.4,2.2,20.7-4.6,22.8-15c0.8-5.6-0.2-17.5-0.2-17.6c0-0.3,0.2-0.5,0.5-0.5s0.5,0.2,0.5,0.5
		c0,0.5,1,12.1,0.2,17.9c-2.2,11-13,18.1-23.9,15.9c0,0,0,0-0.1,0C91.4,121.7,91.2,121.4,91.3,121.1
		C91.3,121.1,91.3,121.1,91.3,121.1L91.3,121.1z M92,184c-50.8,0-92-41.2-92-92S41.2,0,92,0s92,41.2,92,92
		C183.9,142.8,142.8,183.9,92,184z M92,4C43.4,4,4,43.4,4,92s39.4,88,88,88s88-39.4,88-88C179.9,43.4,140.6,4.1,92,4z"/>
</g>
</svg>
