<?xml version="1.0" encoding="utf-8"?>
<!-- Generator: Adobe Illustrator 21.0.2, SVG Export Plug-In . SVG Version: 6.00 Build 0)  -->
<svg version="1.1" xmlns="http://www.w3.org/2000/svg" xmlns:xlink="http://www.w3.org/1999/xlink" x="0px" y="0px"
	 viewBox="0 0 184 184" style="enable-background:new 0 0 184 184;" xml:space="preserve">
<style type="text/css">
	.st0{fill:none;}
</style>
<g id="background_1_">
	<path class="st0" d="M92,184c-50.8,0-92-41.2-92-92S41.2,0,92,0s92,41.2,92,92C183.9,142.8,142.8,183.9,92,184z"/>
</g>
<g id="icon">
	<path d="M141,105.5c-0.8,0-1.5,0.7-1.5,1.5v19.8h-20c-2.9,0-4.7-0.5-5.8-1.6c-1.6-1.6-1.5-4.6-1.5-8.5c0-0.7,0-1.4,0-2.2v-13.8
		c4.8-1.3,7.7-6.2,6.4-11c-0.1-0.3-0.2-0.7-0.3-1l17.7-9.2l0,0c3.1-1.5,4.3-5.3,2.8-8.3l-11.6-22.5c-0.8-1.5-2.1-2.5-3.6-3
		c-1.6-0.5-3.3-0.3-4.7,0.5L52.8,80.3c-1.5,0.7-2.6,2-3.1,3.6c-0.5,1.6-0.4,3.3,0.3,4.7l0.6,1.1L38.9,89c-2.9-0.2-5.5,2-5.6,4.9
		c-0.1,0.9,0.1,1.9,0.5,2.7l10.9,22.2c0.8,1.7,2.5,2.8,4.4,2.9h0.6c1.7-0.1,3.3-0.9,4.2-2.4l6.7-10.1l1,1.8c0.8,1.5,2.1,2.5,3.6,3
		c0.6,0.2,1.2,0.3,1.8,0.3c1,0,2-0.2,2.9-0.7l32.5-16.8c1.7,2.5,4.5,4.1,7.5,4.1c0.2,0,0.5,0,0.7,0v13.5c0,0.8,0,1.5,0,2.2
		c-0.1,4.2-0.1,7.5,1.9,9.5c1.4,1.4,3.6,2,6.8,2h20V139c0,0.8,0.7,1.5,1.5,1.5s1.5-0.7,1.5-1.5v-32
		C142.5,106.2,141.8,105.5,141,105.5z M51.4,117.7c-0.4,0.6-1.1,1-1.8,1h-0.2c-0.8,0-1.6-0.5-1.9-1.3L36.5,95.3
		c-0.5-1.2,0-2.5,1.1-3.1c0.3-0.2,0.7-0.2,1.1-0.2l13.4,0.9l6.9,13.4L51.4,117.7z M68.6,111c-0.8,0.4-1.7,0.5-2.5,0.2
		c-0.8-0.2-1.5-0.8-1.8-1.5L52.7,87.3c-0.4-0.7-0.4-1.6-0.2-2.4c0.3-0.8,0.9-1.5,1.7-1.9l66.1-34.1c0.5-0.2,1-0.4,1.6-0.4
		c0.3,0,0.6,0,0.9,0.1c0.8,0.2,1.5,0.8,1.8,1.5l11.6,22.5c0.8,1.6,0.1,3.5-1.5,4.3L68.6,111z M103.3,96.4l14.1-7.3
		c1.5,4.1-0.6,8.7-4.7,10.3C109.3,100.7,105.4,99.5,103.3,96.4z M92,184c-50.8,0-92-41.2-92-92S41.2,0,92,0s92,41.2,92,92
		C183.9,142.8,142.8,183.9,92,184z M92,4C43.4,4,4,43.4,4,92s39.4,88,88,88s88-39.4,88-88C179.9,43.4,140.6,4.1,92,4z"/>
</g>
</svg>
