<?xml version="1.0" encoding="utf-8"?>
<!-- Generator: Adobe Illustrator 21.0.2, SVG Export Plug-In . SVG Version: 6.00 Build 0)  -->
<svg version="1.1" id="Layer_1" xmlns="http://www.w3.org/2000/svg" xmlns:xlink="http://www.w3.org/1999/xlink" x="0px" y="0px"
	 viewBox="0 0 12 9.4" style="enable-background:new 0 0 12 9.4;" xml:space="preserve">
<g>
	<path d="M12,1.1c0,0.4-0.1,0.7-0.3,1s-0.5,0.6-0.8,0.8C9.2,4.1,8.1,4.8,7.7,5.1c0,0-0.1,0.1-0.3,0.2C7.3,5.4,7.2,5.5,7.1,5.5
		C7,5.6,6.9,5.7,6.7,5.8C6.6,5.8,6.5,5.9,6.3,5.9C6.2,6,6.1,6,6,6h0h0C5.9,6,5.8,6,5.7,5.9c-0.1,0-0.2-0.1-0.4-0.2
		C5.1,5.7,5,5.6,4.9,5.5C4.8,5.5,4.7,5.4,4.6,5.3C4.4,5.2,4.3,5.1,4.3,5.1c-0.4-0.3-1-0.7-1.8-1.2S1.3,3,1.2,2.9
		C0.9,2.7,0.6,2.5,0.4,2.1S0,1.5,0,1.2c0-0.3,0.1-0.6,0.3-0.9C0.5,0.1,0.7,0,1.1,0h9.9c0.3,0,0.5,0.1,0.8,0.3
		C11.9,0.5,12,0.8,12,1.1z M12,3v5.3c0,0.3-0.1,0.5-0.3,0.8s-0.5,0.3-0.8,0.3H1.1c-0.3,0-0.5-0.1-0.8-0.3S0,8.7,0,8.4V3
		c0.2,0.2,0.4,0.4,0.7,0.6C2.3,4.7,3.4,5.5,4,5.9c0.3,0.2,0.5,0.3,0.6,0.4S5,6.6,5.3,6.7S5.8,6.9,6,6.9h0h0c0.2,0,0.5-0.1,0.7-0.2
		s0.5-0.2,0.6-0.3S7.7,6.1,8,5.9c0.8-0.5,1.9-1.3,3.3-2.3C11.6,3.4,11.8,3.3,12,3z"/>
</g>
</svg>
