<?xml version="1.0" encoding="utf-8"?>
<!-- Generator: Adobe Illustrator 21.0.2, SVG Export Plug-In . SVG Version: 6.00 Build 0)  -->
<svg version="1.1" id="Layer_1" xmlns="http://www.w3.org/2000/svg" xmlns:xlink="http://www.w3.org/1999/xlink" x="0px" y="0px"
	 viewBox="0 0 111.3 111.2" style="enable-background:new 0 0 111.3 111.2;" xml:space="preserve">
<style type="text/css">
	.st0{fill:#00A0AD;}
	.st1{fill:#00A0AD;stroke:#00A0AD;stroke-miterlimit:10;}
</style>
<title>site_logo</title>
<g id="Layer_1-3">
	<path class="st0" d="M55.6,86.2c-16.1,0-29.4-12.4-30.5-28.5c0,0,3.6,0.8,3.7,1.3c1.9,14.8,15.5,25.4,30.3,23.5
		c9.6-1.2,17.8-7.4,21.5-16.3l3.2,1.4C79,78.9,67.9,86.2,55.6,86.2z"/>
	<path class="st0" d="M81.2,46.5c-3.9-10.8-14.1-18-25.5-18c-8.8,0-17.6,5-22.7,12.1c-0.3,0.4-3.1-1.5-3.1-1.5
		c9.1-14.2,28.1-18.4,42.3-9.3c6.4,4.1,11.1,10.5,13.1,17.8C83.8,47.4,82.5,47,81.2,46.5z"/>
	<path class="st1" d="M58,110.7h-2.5c-29.4,0-53.6-23.1-55-52.4c-0.2-4.7,0.1-9.3,1-13.9l1.3-6.6l3.6,5.7c1,1.4,2,2.8,3.2,4.1
		l0.8,0.9l-0.2,1.2c-0.4,2.7-0.5,5.4-0.4,8.1l0,0c1.2,25.3,22.7,44.8,48,43.6c6-0.3,11.9-1.8,17.4-4.3c5.5-2.6,10.3-6.2,14.4-10.7
		c2.3-2.5,3.9-5.6,4.5-8.9c0.4-2.5,0.1-5-1.1-7.2c-1.8-3.4-5.8-6.3-11.8-8.2c-6.4-2.1-14.8-3.2-24.7-3.2c-11.1,0-21.1-1.7-28.7-4.9
		c-8-3.4-13.6-8.4-16.1-14.6c-3.6-8-2.2-15.7,4.2-22.7c8-8.8,23.3-15.4,37.2-16c30.4-1.4,56.2,22,57.7,52.4c0.2,3.5,0,7-0.4,10.5
		l-0.8,3l-2.5-4.7c-1.6-2.6-3.5-4.9-5.7-7l0.1-1.4C100.3,29,80.1,9.8,55.7,9.9h-2.3c-11.8,0.6-22.9,5.6-31.1,14
		c-3,3.6-3.8,7.5-2.1,11.5s5.8,7.6,11.9,10c6.4,2.6,14.8,3.9,24.4,3.9c23.3,0,39.2,5.9,44.8,16.5c1.8,3.7,2.6,7.8,2.2,11.8
		c-0.5,5.7-3.1,11-7.7,15.6C86,103.8,72.4,110.1,58,110.7z"/>
</g>
</svg>
